<svg xmlns="http://www.w3.org/2000/svg" viewBox="0 0 960 560" role="img" aria-labelledby="title desc">
  <title id="title">Desktop wireframe of the Temple Paths home page</title>
  <desc id="desc">Wide layout with horizontal navigation, hero, and three cards in one row.</desc>
  <rect width="960" height="560" fill="#f4f1ea"/>
  <rect x="16" y="16" width="928" height="528" fill="#ffffff" stroke="#102a43" stroke-width="3"/>
  <rect x="16" y="16" width="928" height="64" fill="#102a43"/>
  <rect x="36" y="38" width="150" height="16" rx="3" fill="#e9c46a"/>
  <text x="560" y="54" fill="#ffffff" font-family="Arial, sans-serif" font-size="14">Home</text>
  <text x="640" y="54" fill="#ffffff" font-family="Arial, sans-serif" font-size="14">Temples</text>
  <text x="740" y="54" fill="#e9c46a" font-family="Arial, sans-serif" font-size="14">Plan a Visit</text>
  <text x="40" y="116" fill="#102a43" font-family="Georgia, serif" font-size="22">Home heading</text>
  <rect x="40" y="132" width="880" height="150" rx="6" fill="#d9cfc0" stroke="#102a43"/>
  <text x="420" y="214" fill="#102a43" font-family="Arial, sans-serif" font-size="16">Hero image</text>
  <rect x="40" y="304" width="276" height="150" rx="6" fill="#ffffff" stroke="#102a43"/>
  <rect x="52" y="316" width="252" height="70" fill="#d9cfc0"/>
  <text x="120" y="412" fill="#102a43" font-family="Arial, sans-serif" font-size="14">Featured temple</text>
  <text x="128" y="432" fill="#243b53" font-family="Arial, sans-serif" font-size="12">name, country</text>
  <rect x="342" y="304" width="276" height="150" rx="6" fill="#ffffff" stroke="#102a43"/>
  <rect x="354" y="316" width="252" height="70" fill="#d9cfc0"/>
  <text x="422" y="412" fill="#102a43" font-family="Arial, sans-serif" font-size="14">Featured temple</text>
  <text x="430" y="432" fill="#243b53" font-family="Arial, sans-serif" font-size="12">name, country</text>
  <rect x="644" y="304" width="276" height="150" rx="6" fill="#ffffff" stroke="#102a43"/>
  <rect x="656" y="316" width="252" height="70" fill="#d9cfc0"/>
  <text x="724" y="412" fill="#102a43" font-family="Arial, sans-serif" font-size="14">Featured temple</text>
  <text x="732" y="432" fill="#243b53" font-family="Arial, sans-serif" font-size="12">name, country</text>
  <rect x="16" y="480" width="928" height="64" fill="#102a43"/>
  <text x="430" y="518" fill="#ffffff" font-family="Arial, sans-serif" font-size="14">Footer</text>
</svg>
