<svg xmlns="http://www.w3.org/2000/svg" viewBox="0 0 800 500" width="800" height="500" role="img" aria-labelledby="title desc">
  <title id="title">Resources illustration</title>
  <desc id="desc">Abstract illustration representing study resources and web development tools.</desc>

  <defs>
    <linearGradient id="bg" x1="0" x2="1" y1="0" y2="1">
      <stop offset="0%" stop-color="#f8fafc"/>
      <stop offset="100%" stop-color="#dbeafe"/>
    </linearGradient>
  </defs>

  <rect width="800" height="500" rx="28" fill="url(#bg)"/>

  <rect x="120" y="95" width="340" height="230" rx="18" fill="#0f172a"/>
  <rect x="140" y="115" width="300" height="190" rx="10" fill="#ffffff"/>

  <rect x="195" y="325" width="190" height="24" rx="12" fill="#64748b"/>
  <rect x="225" y="348" width="130" height="16" rx="8" fill="#334155"/>

  <rect x="520" y="118" width="160" height="44" rx="12" fill="#0b3a53"/>
  <text x="600" y="147" font-family="Arial, sans-serif" font-size="20" text-anchor="middle" fill="#ffffff">Resources</text>

  <circle cx="548" cy="212" r="18" fill="#16a34a"/>
  <path d="M540 212l6 6 11-13" fill="none" stroke="#ffffff" stroke-width="4" stroke-linecap="round" stroke-linejoin="round"/>
  <rect x="580" y="202" width="120" height="18" rx="9" fill="#475569"/>

  <circle cx="548" cy="262" r="18" fill="#16a34a"/>
  <path d="M540 262l6 6 11-13" fill="none" stroke="#ffffff" stroke-width="4" stroke-linecap="round" stroke-linejoin="round"/>
  <rect x="580" y="252" width="105" height="18" rx="9" fill="#475569"/>

  <circle cx="548" cy="312" r="18" fill="#16a34a"/>
  <path d="M540 312l6 6 11-13" fill="none" stroke="#ffffff" stroke-width="4" stroke-linecap="round" stroke-linejoin="round"/>
  <rect x="580" y="302" width="130" height="18" rx="9" fill="#475569"/>

  <rect x="175" y="145" width="110" height="18" rx="9" fill="#e2e8f0"/>
  <rect x="175" y="176" width="210" height="16" rx="8" fill="#cbd5e1"/>
  <rect x="175" y="206" width="180" height="16" rx="8" fill="#cbd5e1"/>
  <rect x="175" y="236" width="205" height="16" rx="8" fill="#cbd5e1"/>
</svg>