<?xml version="1.0" encoding="UTF-8"?>
<svg xmlns="http://www.w3.org/2000/svg" viewBox="0 0 64 64" width="64" height="64" role="img" aria-label="Weather icon">
  <g fill="none" stroke="currentColor" stroke-width="4" stroke-linecap="round" stroke-linejoin="round">
    <!-- Sun -->
    <circle cx="20" cy="22" r="8"/>
    <path d="M20 6v6M20 32v6M4 22h6M30 22h6M8.5 10.5l4.2 4.2M27.3 29.3l4.2 4.2M31.5 10.5l-4.2 4.2M12.7 29.3l-4.2 4.2"/>
    <!-- Cloud -->
    <path d="M40 48H18c-6 0-10-4-10-9s4-9 10-9c1 0 2 0 3 .3C23 25 27 22 32 22c7 0 12 5 12 12v1c5 1 8 4 8 8 0 3-3 5-6 5z"/>
  </g>
</svg>
